<svg xmlns="http://www.w3.org/2000/svg" width="416.435" height="94" viewBox="0 0 416.435 94">
  <g id="Group_13" data-name="Group 13" transform="translate(-766.467 -2223)">
    <text id="SERVICES" transform="translate(814 2299)" fill="#070454" font-size="70" font-family="SegoeUI, Segoe UI"><tspan x="0" y="0">SERVICES</tspan></text>
    <path id="Path_22" data-name="Path 22" d="M143.314,230.342a3.775,3.775,0,0,1-2.454-.905l-24.528-20.885a3.792,3.792,0,0,1,0-5.772l24.528-20.885a3.789,3.789,0,1,1,4.914,5.77l-21.137,18,21.137,18a3.791,3.791,0,0,1-2.46,6.678Zm0,0" transform="translate(651.467 2069.354)" fill="#070454"/>
    <path id="Path_23" data-name="Path 23" d="M253.5,230.342a3.792,3.792,0,0,1-2.46-6.678l21.137-18-21.137-18a3.789,3.789,0,0,1,4.914-5.77l24.528,20.885a3.792,3.792,0,0,1,0,5.772l-24.528,20.885A3.776,3.776,0,0,1,253.5,230.342Zm0,0" transform="translate(901.088 2069.355)" fill="#070454"/>
    <path id="Path_24" data-name="Path 24" d="M192.75,233.186a3.855,3.855,0,0,1-.787-.083,3.792,3.792,0,0,1-2.927-4.49l15.286-72.579a3.79,3.79,0,0,1,7.418,1.563l-15.287,72.579A3.791,3.791,0,0,1,192.75,233.186Zm0,0" transform="translate(928.944 2082.177)" fill="#070454"/>
  </g>
</svg>
